<svg xmlns="http://www.w3.org/2000/svg" width="24" height="24" viewBox="0 0 24 24"><g><path fill="#4285F4" d="M21.805 10.023h-9.765v3.977h5.617c-.242 1.242-1.484 3.648-5.617 3.648-3.375 0-6.125-2.789-6.125-6.148 0-3.359 2.75-6.148 6.125-6.148 1.922 0 3.211.82 3.953 1.523l2.703-2.633c-1.703-1.57-3.898-2.539-6.656-2.539-5.523 0-10 4.477-10 10s4.477 10 10 10c5.781 0 9.594-4.055 9.594-9.773 0-.656-.07-1.156-.156-1.652z"/><path fill="#34A853" d="M3.545 7.548l3.273 2.402c.891-1.68 2.523-2.852 4.387-2.852 1.055 0 2.047.367 2.812 1.008l2.703-2.633c-1.703-1.57-3.898-2.539-6.656-2.539-3.789 0-7.008 2.484-8.273 5.961z"/><path fill="#FBBC05" d="M12 22c2.672 0 4.922-.883 6.562-2.406l-3.047-2.484c-.844.57-1.922.914-3.516.914-2.695 0-4.984-1.82-5.797-4.273l-3.273 2.531c1.25 3.445 4.523 5.718 8.071 5.718z"/><path fill="#EA4335" d="M21.805 10.023h-9.765v3.977h5.617c-.242 1.242-1.484 3.648-5.617 3.648-3.375 0-6.125-2.789-6.125-6.148 0-3.359 2.75-6.148 6.125-6.148 1.922 0 3.211.82 3.953 1.523l2.703-2.633c-1.703-1.57-3.898-2.539-6.656-2.539-5.523 0-10 4.477-10 10s4.477 10 10 10c5.781 0 9.594-4.055 9.594-9.773 0-.656-.07-1.156-.156-1.652z" opacity=".1"/></g></svg>